# AST/ASF file generated using VICON BodyLanguage
# -----------------------------------------------
:version 1.10
:name VICON
:units
  mass 1.0
  length 0.45
  angle deg
:documentation
   .ast/.asf automatically generated from VICON data using
   VICON BodyBuilder and BodyLanguage model FoxedUp or BRILLIANT.MOD
:root
   order TX TY TZ RX RY RZ
   axis XYZ
   position 0 0 0  
   orientation 0 0 0 
:bonedata
  begin
     id 1 
     name lhipjoint
     direction 0.734343 -0.627749 0.258209 
     length 2.5437 
     axis 0 0 0  XYZ
  end
  begin
     id 2 
     name lfemur
     direction 0.34202 -0.939693 0  
     length 6.7391  
     axis 0 0 20  XYZ
    dof rx ry rz
    limits (-160.0 20.0)
           (-70.0 70.0)
           (-60.0 70.0)
  end
  begin
     id 3 
     name ltibia
     direction 0.34202 -0.939693 0   
     length 7.21536   
     axis 0 0 20   XYZ
    dof rx
    limits (-10.0 170.0)
  end
  begin
     id 4 
     name lfoot
     direction 0.0489572 -0.134509 0.989702   
     length 1.61313   
     axis -90 7.62852e-016 20   XYZ
    dof rx rz
    limits (-45.0 90.0)
           (-70.0 20.0)
  end
  begin
     id 5 
     name ltoes
     direction 1.53451e-011 -4.21692e-011 1   
     length 0.823104   
     axis -90 7.62852e-016 20   XYZ
    dof rx
    limits (-90.0 20.0)
  end
  begin
     id 6 
     name rhipjoint
     direction -0.746398 -0.615468 0.253157   
     length 2.59446  
     axis 0 0 0  XYZ 
  end
  begin
     id 7 
     name rfemur
     direction -0.34202 -0.939693 0   
     length 6.7075   
     axis 0 0 -20   XYZ
    dof rx ry rz
    limits (-160.0 20.0)
           (-70.0 70.0)
           (-70.0 60.0)
  end
  begin
     id 8 
     name rtibia
     direction -0.34202 -0.939693 0   
     length 7.27262   
     axis 0 0 -20   XYZ
    dof rx
    limits (-10.0 170.0)
 end
 begin
     id 9 
     name rfoot
     direction -0.0455203 -0.125066 0.991104   
     length 1.91095  
     axis -90 -7.62852e-016 -20   XYZ
    dof rx rz
    limits (-45.0 90.0)
           (-20.0 70.0)
  end
  begin
     id 10 
     name rtoes
     direction -1.53601e-011 -4.21913e-011 1   
     length 0.969037   
     axis -90 -7.62852e-016 -20   XYZ
    dof rx
    limits (-90.0 20.0)
  end
  begin
     id 11 
     name lowerback
     direction 0.0181546 0.999122 -0.0377542   
     length 1.99916   
     axis 0 0 0   XYZ
    dof rx ry rz
    limits (-20.0 45.0)
           (-30.0 30.0)
           (-30.0 30.0)
  end
  begin
     id 12 
     name upperback
     direction 0.0203486 0.99589 0.0882534   
     length 1.951   
     axis 0 0 0   XYZ
    dof rx ry rz
    limits (-20.0 45.0)
           (-30.0 30.0)
           (-30.0 30.0)
  end
  begin
     id 13 
     name thorax
     direction 0.0131685 0.994241 0.106355   
     length 1.97461   
     axis 0 0 0   XYZ
    dof rx ry rz
    limits (-20.0 45.0)
           (-30.0 30.0)
           (-30.0 30.0)
  end
  begin
     id 14 
     name lowerneck
     direction -0.0281395 0.999325 0.023617   
     length 1.7959   
     axis 0 0 0   XYZ
    dof rx ry rz
    limits (-20.0 45.0)
           (-30.0 30.0)
           (-30.0 30.0)
  end
  begin
     id 15 
     name upperneck
     direction 0.0288721 0.991984 -0.123019   
     length 1.79917   
     axis 0 0 0   XYZ
    dof rx ry rz
    limits (-20.0 45.0)
           (-30.0 30.0)
           (-30.0 30.0)
  end
  begin
     id 16
     name head
     direction 0.0133797 0.998944 -0.0439492  
     length 1.80902  
     axis 0 0 0   XYZ
    dof rx ry rz
    limits (-20.0 45.0)
           (-30.0 30.0)
           (-30.0 30.0)
  end
  begin
     id 17 
     name lclavicle
     direction 0.919195 0.377107 0.113449  
     length 3.17815  
     axis 0 0 0   XYZ
    dof ry rz
    limits (-20.0 10.0)
           (0.0 20.0)
  end
  begin
     id 18 
     name lhumerus
     direction 1 -4.48959e-011 2.13129e-027   
     length 4.84137   
     axis 180 -30 -90   XYZ
    dof rx ry rz
    limits (-60.0 90.0)
           (-90.0 90.0)
           (-90.0 90.0)
  end
  begin
     id 19
     name lradius
     direction 1 -4.48957e-011 -6.30627e-028   
     length 3.2452   
     axis 180 -30 -90   XYZ
    dof rx
    limits (-10.0 170.0)
  end
  begin
     id 20
     name lwrist
     direction 1 -4.4901e-011 9.13299e-027   
     length 1.6226   
     axis -6.84618e-015 90 90   XYZ
    dof ry
    limits (-180.0 0.0)
 end
  begin
     id 21 
     name lhand
     direction 1 -4.48816e-011 1.82293e-026   
     length 0.521221   
     axis -1.16502e-014 90 90   XYZ
    dof rx rz
    limits (-90.0 90.0)
           (-45.0 45.0)
  end
  begin
     id 22 
     name lfingers
     direction 1 -4.49108e-011 3.65687e-026   
     length 0.420221   
     axis -2.33008e-014 90 90   XYZ
    dof rx
    limits (0.0 90.0)
  end
  begin
     id 23
     name lthumb
     direction 0.707107 -6.34943e-011 0.707107   
     length 0.603356   
     axis -90 45 5.69224e-014   XYZ
    dof rx rz
    limits (-45.0 45.0)
           (-45.0 45.0)
  end
  begin
     id 24 
     name rclavicle
     direction -0.90847 0.38596 0.160368   
     length 3.12973  
     axis 0 0 0   XYZ 
    dof ry rz
    limits (-10.0 20.0)
           (-20.0 0.0)
  end
  begin
     id 25 
     name rhumerus
     direction -1 -4.48974e-011 4.47268e-028  
     length 4.72284   
     axis 180 30 90   XYZ
    dof rx ry rz
    limits (-90.0 60.0)
           (-90.0 90.0)
           (-90.0 90.0)
  end
  begin
     id 26 
     name rradius
     direction -1 -4.48969e-011 3.43203e-027   
     length 3.23459   
     axis 180 30 90   XYZ
    dof rx
    limits (-10.0 170.0)
  end
  begin
     id 27 
     name rwrist
     direction -1 -4.48969e-011 9.12911e-027   
     length 1.6173   
     axis -6.84618e-015 -90 -90   XYZ
    dof ry
    limits (-180.0 0.0)
  end
  begin
     id 28
     name rhand
     direction -1 -4.49194e-011 1.83006e-026   
     length 0.307416   
     axis -1.16502e-014 -90 -90   XYZ
    dof rx rz
    limits (-90.0 90.0)
           (-45.0 45.0)
  end
  begin
     id 29
     name rfingers
     direction -1 -4.48423e-011 3.63103e-026   
     length 0.247847   
     axis -2.33008e-014 -90 -90   XYZ
    dof rx
    limits (0.0 90.0)
  end
  begin
     id 30
     name rthumb
     direction -0.707107 -6.34802e-011 0.707107   
     length 0.35586   
     axis -90 -45 -5.69224e-014   XYZ
    dof rx rz
    limits (-45.0 45.0)
           (-45.0 45.0)
  end
:hierarchy
  begin
    root lhipjoint rhipjoint lowerback
    lhipjoint lfemur
    lfemur ltibia
    ltibia lfoot
    lfoot ltoes
    rhipjoint rfemur
    rfemur rtibia
    rtibia rfoot
    rfoot rtoes
    lowerback upperback
    upperback thorax
    thorax lowerneck lclavicle rclavicle
    lowerneck upperneck
    upperneck head
    lclavicle lhumerus
    lhumerus lradius
    lradius lwrist
    lwrist lhand lthumb
    lhand lfingers
    rclavicle rhumerus
    rhumerus rradius
    rradius rwrist
    rwrist rhand rthumb
    rhand rfingers
  end

#!OML:ASF H:\Terrain\Patient Classification 1\Animal1\Tuesday\Animal1.ASF
:FULLY-SPECIFIED
:DEGREES
1
root 15.7759 15.814 -25.1286 8.53329 -30.6051 -1.13334
lowerback -0.945077 0.665942 5.61434
upperback -3.35569 0.935189 0.796499
thorax -2.85712 0.322079 -2.33626
lowerneck -6.41826 2.37216 -4.49569
upperneck 16.9795 2.60865 6.8128
head 6.01685 1.47209 3.08879
rclavicle 8.6931e-014 -5.56597e-015
rhumerus -48.7717 10.6716 -86.442
rradius 39.7299
rwrist -22.2608
rhand -23.9369 26.0176
rfingers 7.12502
rthumb 2.53833 -3.94707
lclavicle 8.6931e-014 -5.56597e-015
lhumerus -49.0557 7.77802 76.9645
lradius 45.4199
lwrist 8.01346
lhand 5.06111 49.7152
lfingers 7.12502
lthumb 30.4283 77.2241
rfemur -19.7802 30.156 30.0886
rtibia 29.2486
rfoot -21.0135 -46.3564
rtoes 37.4144
lfemur -30.964 -14.922 -7.36356
ltibia 34.5773
lfoot -12.1558 15.245
ltoes -8.54898
2
root 15.7829 15.8162 -25.1374 8.56998 -30.6149 -1.18321
lowerback -0.786577 0.671937 5.69422
upperback -3.23932 0.950904 0.763526
thorax -2.82313 0.330947 -2.41655
lowerneck -6.73137 2.38153 -4.31713
upperneck 16.9855 2.63267 6.67802
head 6.07763 1.48979 3.02371
rclavicle -3.61788e-014 -1.19271e-014
rhumerus -48.8283 10.754 -86.6021
rradius 40.0105
rwrist -22.8872
rhand -24.0777 26.2722
rfingers 7.12502
rthumb 2.40232 -3.69405
lclavicle -3.61788e-014 -1.19271e-014
lhumerus -49.0625 7.71656 76.8735
lradius 45.8269
lwrist 7.7811
lhand 5.59129 50.904
lfingers 7.12502
lthumb 30.9338 78.3181
rfemur -19.7967 29.9639 30.1077
rtibia 29.1466
rfoot -21.5772 -45.9189
rtoes 38.3528
lfemur -31.0562 -14.9783 -7.28175
ltibia 34.5823
lfoot -12.0096 15.3468
ltoes -8.96821
3
root 15.7898 15.8197 -25.1464 8.61805 -30.5136 -1.26469
lowerback -0.649439 0.689167 5.79534
upperback -3.122 0.980524 0.737472
thorax -2.77477 0.346816 -2.50152
lowerneck -6.87024 2.40033 -4.1511
upperneck 16.7895 2.65883 6.62876
head 6.04248 1.51171 2.98026
rclavicle -6.26172e-014 -9.14409e-015
rhumerus -48.907 10.6722 -86.7231
rradius 40.2537
rwrist -23.4907
rhand -24.2897 26.1938
rfingers 7.12502
rthumb 2.1976 -3.7746
lclavicle -6.26172e-014 -9.14409e-015
lhumerus -49.0229 7.27849 77.0695
lradius 46.2484
lwrist 8.10653
lhand 4.96517 52.0939
lfingers 7.12502
lthumb 30.3367 79.6197
rfemur -19.8875 29.7463 30.1828
rtibia 29.2069
rfoot -20.6227 -46.0658
rtoes 37.5333
lfemur -31.1093 -15.1155 -7.13475
ltibia 34.4818
lfoot -12.1147 15.2386
ltoes -7.38049
4
root 15.799 15.8214 -25.1539 8.52601 -30.4207 -1.18225
lowerback -0.468293 0.708161 5.76041
upperback -2.96977 1.01343 0.717424
thorax -2.71607 0.369014 -2.50478
lowerneck -7.08531 2.37876 -4.07193
upperneck 16.6216 2.65505 6.50517
head 6.03127 1.50922 2.92787
rclavicle 1.59897e-014 -9.14409e-015
rhumerus -48.9379 10.6009 -86.707
rradius 40.4497
rwrist -24.0146
rhand -24.3427 26.1589
rfingers 7.12502
rthumb 2.14643 -3.81001
lclavicle 1.59897e-014 -9.14409e-015
lhumerus -48.9225 6.8972 77.361
lradius 46.439
lwrist 8.21915
lhand 2.90403 51.2273
lfingers 7.12502
lthumb 28.3688 79.0978
rfemur -19.9101 29.4315 30.1319
rtibia 29.2672
rfoot -19.694 -46.102
rtoes 36.4885
lfemur -31.0474 -15.2314 -7.20379
ltibia 34.3757
lfoot -12.2277 15.133
ltoes -6.40204
5
root 15.8078 15.8233 -25.1612 8.29381 -30.3973 -0.892269
lowerback -0.241949 0.668608 5.49146
upperback -2.80195 0.96855 0.729936
thorax -2.67631 0.358134 -2.3429
lowerneck -7.40415 2.39867 -4.18839
upperneck 16.5434 2.73827 6.36065
head 6.0586 1.53679 2.91117
rclavicle -2.73329e-016 -8.34896e-015
rhumerus -48.8981 10.7547 -86.635
rradius 40.6304
rwrist -24.4654
rhand -24.534 26.3903
rfingers 7.12502
rthumb 1.96163 -3.58044
lclavicle -2.73329e-016 -8.34896e-015
lhumerus -48.8738 6.92846 77.5095
lradius 46.5305
lwrist 7.73453
lhand -10.0733 43.8585
lfingers 7.12502
lthumb 15.913 73.2247
rfemur -19.8856 29.1378 29.8889
rtibia 29.3274
rfoot -19.3428 -45.9875
rtoes 36.1268
lfemur -30.9351 -15.4102 -7.48918
ltibia 34.2873
lfoot -12.229 15.1875
ltoes -6.23745
